<?xml version="1.0" encoding="UTF-8"?>
<svg width="24px" height="24px" viewBox="0 0 24 24" version="1.1" xmlns="http://www.w3.org/2000/svg" xmlns:xlink="http://www.w3.org/1999/xlink">
    <!-- Generator: Sketch 55.1 (78136) - https://sketchapp.com -->
    <title>Icons/Digital/Change</title>
    <desc>Created with Sketch.</desc>
    <g id="Icons/Digital/Change" stroke="none" stroke-width="1" fill="none" fill-rule="evenodd">
        <g id="Atmos/Icons/Digital/change" transform="translate(0.000000, 2.000000)" fill="#0C2340" fill-rule="nonzero">
            <path d="M19.2328467,12.3917596 C18.9494586,12.102954 18.9207422,11.6012613 19.1687067,11.2711977 C19.4166713,10.9411342 19.8474177,10.907688 20.1308058,11.1964936 L23.7671627,14.902367 C24.0776124,15.2187517 24.0776124,15.7812483 23.7671627,16.097633 L20.1308058,19.8035064 C19.8474177,20.092312 19.4166713,20.0588658 19.1687067,19.7288023 C18.9207422,19.3987387 18.9494586,18.897046 19.2328467,18.6082404 L22.2827812,15.5 L19.2328467,12.3917596 Z M19.2328467,1.3917596 C18.9494586,1.10295396 18.9207422,0.601261328 19.1687067,0.271197742 C19.4166713,-0.0588658434 19.8474177,-0.0923120188 20.1308058,0.196493619 L23.7671627,3.90236701 C24.0776124,4.21875168 24.0776124,4.78124832 23.7671627,5.09763299 L20.1308058,8.80350638 C19.8474177,9.09231202 19.4166713,9.05886584 19.1687067,8.72880226 C18.9207422,8.39873867 18.9494586,7.89704604 19.2328467,7.6082404 L22.2827812,4.5 L19.2328467,1.3917596 Z M10.2575831,8.45664949 C13.3559337,5.15981216 17.3553363,3.49981873 22.1913123,3.49981873 C22.7483951,3.49981873 23.2,3.94753398 23.2,4.49981873 C23.2,5.05210348 22.7483951,5.49981873 22.1913123,5.49981873 C17.8239579,5.49981873 14.3053539,6.99167377 11.5671891,9.99990936 C14.3053539,13.008145 17.8239579,14.5 22.1913123,14.5 C22.7483951,14.5 23.2,14.9477153 23.2,15.5 C23.2,16.0522847 22.7483951,16.5 22.1913123,16.5 C17.3553363,16.5 13.3559337,14.8400066 10.2575831,11.5431692 C7.33272659,14.9042938 4.31691118,16.8976399 1.19621097,17.4824201 C0.648820596,17.5849943 0.121197854,17.2282214 0.017732596,16.6855456 C-0.0857326621,16.1428698 0.274139752,15.6197914 0.82153013,15.5172173 C3.50920819,15.01358 6.21832996,13.1890348 8.93398447,9.99990936 C6.21832996,6.81078395 3.50920819,4.98623873 0.82153013,4.48260141 C0.274139752,4.38002728 -0.0857326621,3.85694889 0.017732596,3.31427312 C0.121197854,2.77159735 0.648820596,2.41482447 1.19621097,2.51739859 C4.31691118,3.10217886 7.33272659,5.0955249 10.2575831,8.45664949 Z" id="Combined-Shape"></path>
        </g>
    </g>
</svg>